<svg width="44" height="140" viewBox="0 0 44 140" fill="none" xmlns="http://www.w3.org/2000/svg">
<path d="M41.5 25.6197C41.5 41.2346 39.0837 63.5567 35.0961 81.9468C33.0998 91.1533 30.7375 99.2418 28.1481 104.974C26.8489 107.851 25.5527 109.997 24.3145 111.385C23.0553 112.797 22.142 113.12 21.5813 113.12C21.031 113.12 20.1433 112.808 18.9267 111.409C17.7267 110.029 16.4808 107.89 15.2429 105.015C12.7763 99.2856 10.5788 91.1991 8.74904 81.9894C5.09531 63.5987 3.00999 41.2619 3.00999 25.6197C3.00999 17.7818 3.53571 12.5516 4.44063 9.08384C5.34086 5.634 6.52024 4.28341 7.56673 3.66637C8.70682 2.99415 10.269 2.82655 12.7784 2.99584C13.4984 3.0444 14.3221 3.12517 15.2154 3.21275C17.131 3.40057 19.366 3.6197 21.5813 3.6197C23.76 3.6197 26.0025 3.40712 27.9633 3.22124C28.9179 3.13075 29.8057 3.04658 30.5869 2.99635C33.2173 2.82722 35.0037 2.9845 36.3511 3.71238C37.5804 4.3765 38.8817 5.76861 39.8796 9.15859C40.8914 12.5958 41.5 17.7983 41.5 25.6197Z" stroke="black" stroke-width="5"/>
<path d="M20.8846 59.8351C21.8745 60.7976 23.4572 60.7754 24.4198 59.7855L40.1048 43.6539C41.0673 42.664 41.0451 41.0812 40.0552 40.1187C39.0653 39.1562 37.4825 39.1784 36.52 40.1683L22.5777 54.5075L8.23852 40.5653C7.24861 39.6028 5.66585 39.625 4.70334 40.6149C3.74082 41.6048 3.76304 43.1876 4.75295 44.1501L20.8846 59.8351ZM19.3829 5.01897L20.1276 58.0778L25.1271 58.0077L24.3824 4.9488L19.3829 5.01897Z" fill="black"/>
<path d="M5.02171 137.318C5.02171 137.025 4.91039 136.799 4.68773 136.639C4.46898 136.475 4.08421 136.334 3.53343 136.217C2.98656 136.1 2.55101 135.959 2.22679 135.795C1.90648 135.631 1.6682 135.436 1.51195 135.209C1.3596 134.982 1.28343 134.713 1.28343 134.4C1.28343 133.881 1.50218 133.441 1.93968 133.082C2.38109 132.723 2.94359 132.543 3.62718 132.543C4.34593 132.543 4.92796 132.729 5.37328 133.1C5.82249 133.471 6.0471 133.945 6.0471 134.523H4.95726C4.95726 134.227 4.83031 133.971 4.5764 133.756C4.3264 133.541 4.00999 133.434 3.62718 133.434C3.23265 133.434 2.92406 133.52 2.7014 133.691C2.47874 133.863 2.36742 134.088 2.36742 134.365C2.36742 134.627 2.47093 134.824 2.67796 134.957C2.88499 135.09 3.25804 135.217 3.7971 135.338C4.34007 135.459 4.77953 135.604 5.11546 135.771C5.4514 135.939 5.69945 136.143 5.8596 136.381C6.02367 136.615 6.1057 136.902 6.1057 137.242C6.1057 137.809 5.87914 138.264 5.42601 138.607C4.97289 138.947 4.38499 139.117 3.66234 139.117C3.15453 139.117 2.70531 139.027 2.31468 138.848C1.92406 138.668 1.61742 138.418 1.39476 138.098C1.17601 137.773 1.06664 137.424 1.06664 137.049H2.15062C2.17015 137.412 2.31468 137.701 2.58421 137.916C2.85765 138.127 3.21703 138.232 3.66234 138.232C4.07249 138.232 4.40062 138.15 4.64671 137.986C4.89671 137.818 5.02171 137.596 5.02171 137.318ZM13.0373 138.232C13.4241 138.232 13.7619 138.115 14.051 137.881C14.3401 137.646 14.5002 137.354 14.5315 137.002H15.5569C15.5373 137.365 15.4123 137.711 15.1819 138.039C14.9514 138.367 14.6428 138.629 14.2561 138.824C13.8733 139.02 13.467 139.117 13.0373 139.117C12.1741 139.117 11.4866 138.83 10.9748 138.256C10.467 137.678 10.2131 136.889 10.2131 135.889V135.707C10.2131 135.09 10.3264 134.541 10.553 134.061C10.7795 133.58 11.1037 133.207 11.5256 132.941C11.9514 132.676 12.4534 132.543 13.0315 132.543C13.7424 132.543 14.3323 132.756 14.801 133.182C15.2737 133.607 15.5256 134.16 15.5569 134.84H14.5315C14.5002 134.43 14.344 134.094 14.0627 133.832C13.7854 133.566 13.4416 133.434 13.0315 133.434C12.4807 133.434 12.053 133.633 11.7483 134.031C11.4475 134.426 11.2971 134.998 11.2971 135.748V135.953C11.2971 136.684 11.4475 137.246 11.7483 137.641C12.0491 138.035 12.4787 138.232 13.0373 138.232ZM22.8166 133.633C22.6526 133.605 22.4748 133.592 22.2834 133.592C21.5725 133.592 21.0901 133.895 20.8362 134.5V139H19.7522V132.66H20.8069L20.8244 133.393C21.1799 132.826 21.6838 132.543 22.3362 132.543C22.5471 132.543 22.7073 132.57 22.8166 132.625V133.633ZM26.508 135.771C26.508 135.15 26.6291 134.592 26.8713 134.096C27.1174 133.6 27.4573 133.217 27.8909 132.947C28.3284 132.678 28.8264 132.543 29.385 132.543C30.2483 132.543 30.9455 132.842 31.4768 133.439C32.0119 134.037 32.2795 134.832 32.2795 135.824V135.9C32.2795 136.518 32.1604 137.072 31.9221 137.564C31.6877 138.053 31.3498 138.434 30.9084 138.707C30.4709 138.98 29.967 139.117 29.3967 139.117C28.5373 139.117 27.8401 138.818 27.3049 138.221C26.7737 137.623 26.508 136.832 26.508 135.848V135.771ZM27.5979 135.9C27.5979 136.604 27.76 137.168 28.0842 137.594C28.4123 138.02 28.8498 138.232 29.3967 138.232C29.9475 138.232 30.385 138.018 30.7092 137.588C31.0334 137.154 31.1955 136.549 31.1955 135.771C31.1955 135.076 31.0295 134.514 30.6975 134.084C30.3694 133.65 29.9319 133.434 29.385 133.434C28.8498 133.434 28.4182 133.646 28.0901 134.072C27.7619 134.498 27.5979 135.107 27.5979 135.9ZM37.7932 139H36.7092V130H37.7932V139ZM43.6877 139H42.6037V130H43.6877V139Z" fill="black"/>
</svg>
