<svg width="569" height="208" viewBox="0 0 569 208" fill="none" xmlns="http://www.w3.org/2000/svg">
<rect x="1.5" y="2.5" width="566" height="203" stroke="black" stroke-width="3"/>
<line x1="135.5" y1="0.992719" x2="136.5" y2="206.993" stroke="black" stroke-width="3"/>
<line x1="135.5" y1="0.992719" x2="136.5" y2="206.993" stroke="black" stroke-width="3"/>
<path d="M39.0364 8.49741L39.0364 207.005" stroke="black" stroke-width="3"/>
<line x1="88" y1="0.992726" x2="89" y2="206.993" stroke="black" stroke-width="3"/>
<line x1="200.5" y1="0.992719" x2="201.5" y2="206.993" stroke="black" stroke-width="3"/>
<line x1="236.5" y1="0.992719" x2="237.5" y2="206.993" stroke="black" stroke-width="3"/>
<line x1="168" y1="0.992719" x2="169" y2="206.993" stroke="black" stroke-width="3"/>
<line x1="267.5" y1="6" x2="267.5" y2="207" stroke="black" stroke-width="3"/>
<line x1="448.5" y1="3.50001" x2="448.5" y2="204.5" stroke="black" stroke-width="3"/>
<line x1="531.5" y1="3.50001" x2="531.5" y2="204.5" stroke="black" stroke-width="3"/>
<line x1="489.5" y1="3.50001" x2="489.5" y2="204.5" stroke="black" stroke-width="3"/>
<line x1="309.5" y1="3.50001" x2="309.5" y2="204.5" stroke="black" stroke-width="3"/>
<line x1="349.5" y1="1.00001" x2="349.5" y2="202" stroke="black" stroke-width="3"/>
<line x1="380.5" y1="3.50001" x2="380.5" y2="204.5" stroke="black" stroke-width="3"/>
<line x1="419.5" y1="3.5" x2="419.5" y2="204.5" stroke="black" stroke-width="3"/>
<rect x="27" y="3.50001" width="22" height="117.5" fill="black"/>
<rect x="76" y="3.5" width="22" height="117.5" fill="black"/>
<rect x="155.5" y="3.5" width="22" height="117.5" fill="black"/>
<rect x="190.25" y="3.50001" width="22" height="117.5" fill="black"/>
<rect x="225" y="3.5" width="22" height="117.5" fill="black"/>
<rect x="298.875" y="1" width="22" height="117.5" fill="black"/>
<rect x="335" y="3.5" width="22" height="117.5" fill="black"/>
<rect x="368" y="3.50001" width="22" height="117.5" fill="black"/>
<rect x="437.5" y="3.50001" width="22" height="117.5" fill="black"/>
<rect x="477" y="3.5" width="22" height="117.5" fill="black"/>
<rect x="521.75" y="3.5" width="22" height="117.5" fill="black"/>
</svg>
